<svg
   xmlns:dc="http://purl.org/dc/elements/1.1/"
   xmlns:cc="http://creativecommons.org/ns#"
   xmlns:rdf="http://www.w3.org/1999/02/22-rdf-syntax-ns#"
   xmlns:svg="http://www.w3.org/2000/svg"
   xmlns="http://www.w3.org/2000/svg"
   version="1.1"
   width="265"
   height="190.36"
   id="svg24291">
  <g transform="translate(0,-862.00205)" id="layer1">
    <g
       transform="matrix(4.3266635,0,0,-3.8882624,7.0116799,1023.7963)"
       id="g10483">
      <path
         d="m 0,0 5.344,0 0,-0.908 C 4.547,-0.913 4.072,-0.975 3.978,-1.563 l 0.01,-1.095 4.164,0 -0.009,1.199 c -0.036,0.516 -0.518,0.587 -1.338,0.551 l 0.009,0.91 5.343,0 0.01,-0.91 c -0.74,0.019 -1.31,-0.059 -1.351,-0.577 l 0,-3.7 c 0.047,-0.54 0.485,-0.601 1.341,-0.595 l 0,-0.94 -5.343,0.009 0.01,0.931 c 0.824,0.006 1.289,0.029 1.321,0.595 l 0,1.186 -4.169,-0.011 0,-1.164 c 0.052,-0.573 0.492,-0.599 1.37,-0.597 l 0,-0.949 -5.341,0 0.009,0.934 c 0.971,0.02 1.289,0.128 1.34,0.601 L 1.345,-1.554 C 1.281,-0.938 0.789,-0.908 0.014,-0.908 L 0,0 z m 17.934,0.258 c 3.898,-0.03 5.494,-1.613 5.494,-3.591 0,-1.978 -1.524,-3.574 -5.494,-3.59 -3.855,-0.014 -5.493,1.612 -5.493,3.59 0,1.978 1.681,3.618 5.493,3.591 z m 0,-1.295 c 1.959,0 2.418,-1.05 2.418,-2.32 0,-1.271 -0.442,-2.271 -2.418,-2.306 -1.94,-0.037 -2.417,1.035 -2.417,2.306 0,1.27 0.396,2.32 2.417,2.32 z M 23.731,0 l 0,-0.914 c 0.913,0 1.277,-0.118 1.302,-0.639 l 0,-3.63 c 0,-0.477 -0.383,-0.622 -1.302,-0.613 l 0,-0.925 4.252,0 0,0.932 c -0.836,0.003 -1.334,0.135 -1.353,0.606 l 0.009,3.437 3.587,-4.714 c 0.174,-0.195 0.39,-0.261 0.63,-0.261 l 3.286,0 0,5.168 c 10e-4,0.537 0.59,0.646 1.344,0.639 L 35.495,0 l -4.302,0 0,-0.914 c 0.75,0.026 1.316,-0.076 1.352,-0.639 L 32.537,-4.931 28.84,-0.142 C 28.76,-0.047 28.643,-0.003 28.495,0 L 23.731,0 z M 36,0.001 l 0,-0.91 c 0.88,0.013 1.254,-0.213 1.25,-0.638 l 0,-3.634 c 0,-0.426 -0.499,-0.6 -1.353,-0.603 l 0.009,-0.937 6.909,0 c 2.365,0.134 4.105,1.017 4.144,3.175 l -0.008,0.535 C 46.85,-0.85 44.678,0.002 42.824,0.001 l -6.824,0 z m 3.861,-1.265 -0.009,-4.144 2.651,-0.008 c 0.864,0.044 1.444,0.722 1.43,1.878 L 43.929,-3.1 c -0.023,1.234 -0.69,1.812 -1.687,1.845 l -2.381,-0.009 z m 8.859,1.28 0,-0.925 c 0.896,-0.017 1.631,-0.114 1.425,-0.649 l -2.223,-3.627 c -0.324,-0.466 -0.657,-0.596 -1.456,-0.606 l -0.011,-0.925 4.275,-0.01 0,0.946 c -0.759,-0.004 -1.301,0.101 -1.064,0.595 l 0.341,0.521 4.18,0.011 0.329,-0.532 c 0.156,-0.324 -0.197,-0.646 -1.169,-0.595 l 0,-0.946 5.786,0 -0.012,0.946 c -0.641,-0.023 -1.141,0.025 -1.52,0.595 l -3.192,4.872 c -0.148,0.19 -0.298,0.326 -0.595,0.319 l -5.094,0.01 z m 3.301,-1.459 -1.259,-2.01 2.62,-0.006 -1.361,2.016 z m 5.42,42.17 C 45.304,34.796 30.418,28.866 15.417,22.934 L 3.743,18.161 C -1.091,16.331 -1.296,12.576 1.57,9.696 2.328,8.911 3.05,8.254 3.651,7.614 7.212,3.816 8.669,3.228 9.235,1.23 l 4.911,0.001 -10.681,9.955 c -2.655,2.907 0.396,4.086 3.066,4.904 l 33.341,11.728 9.612,3.462 c 2.954,0.982 5.469,1.791 7.144,6.592 l 0.895,2.332 0.123,0.449 c 0,0 -0.207,0.08 -0.205,0.074 z M 34.712,24.15 12.961,17.017 C 10.998,16.422 9.135,15.787 7.519,15.236 5.767,14.639 4.521,14.369 3.96,13.847 3.448,13.371 3.456,12.59 3.957,12.07 4.313,11.741 4.645,11.429 5,11.1 l 8.722,2.269 2.265,0.593 c -0.407,0.32 -0.401,0.716 0.054,0.872 l 11.251,3.017 11.494,3.106 7.866,2.145 c 1.907,0.426 3.268,1.396 4.256,2.738 0.986,1.424 1.877,2.869 2.479,4.392 0.09,0.176 0.069,0.269 -0.079,0.283 C 47.904,28.317 40.91,26.272 34.712,24.15 z M 5.632,10.517 8.163,8.18 21.318,10.695 c -0.562,0.374 -0.399,0.847 0.363,0.968 l 19.001,3.662 c 4.387,0.762 4.655,1.092 7.787,5.83 0.265,0.401 0.198,0.511 -0.371,0.327 L 30.881,17.064 11.245,12 5.632,10.517 z M 8.818,7.592 11.694,4.883 27.503,6.839 c -0.486,0.346 -0.354,0.855 0.283,0.914 l 8.279,1.214 c 3.534,0.468 4.443,1.671 7.094,4.887 0.145,0.199 0.021,0.241 -0.436,0.133 L 26.435,10.896 8.818,7.592 z m 3.547,-3.327 3.211,-2.983 20.96,0 -7.967,4.944 -16.204,-1.961"
         id="path10485"
         style="fill:#ed192e;fill-opacity:1;fill-rule:evenodd;stroke:none" />
    </g>
  </g>
</svg>
